<svg xmlns="http://www.w3.org/2000/svg" version="1.1" xmlns:xlink="http://www.w3.org/1999/xlink" width="1000" height="1000"><metadata><rdf:RDF xmlns:rdf="http://www.w3.org/1999/02/22-rdf-syntax-ns#" xmlns:dc="http://purl.org/dc/elements/1.1/"><rdf:Description><dc:creator>RealFaviconGenerator</dc:creator><dc:source>https://realfavicongenerator.net</dc:source></rdf:Description></rdf:RDF></metadata><g clip-path="url(#SvgjsClipPath1280)"><rect width="1000" height="1000" fill="#ffffff"></rect><g transform="matrix(0.8695652173913043,0,0,0.8695652173913043,173.91304347826087,150)"><svg xmlns="http://www.w3.org/2000/svg" version="1.1" width="750pt" height="805pt" viewBox="0 0 750 805" id="svg14" sodipodi:docname="icon.svg" inkscape:version="1.4.2 (ebf0e940, 2025-05-08)" xmlns:inkscape="http://www.inkscape.org/namespaces/inkscape" xmlns:sodipodi="http://sodipodi.sourceforge.net/DTD/sodipodi-0.dtd" xmlns:svg="http://www.w3.org/2000/svg"><defs id="defs14"><clipPath id="SvgjsClipPath1280"><rect width="1000" height="1000" x="0" y="0" rx="500" ry="500"></rect></clipPath></defs><sodipodi:namedview id="namedview14" pagecolor="#ffffff" bordercolor="#000000" borderopacity="0.25" inkscape:showpageshadow="2" inkscape:pageopacity="0.0" inkscape:pagecheckerboard="0" inkscape:deskcolor="#d1d1d1" inkscape:document-units="pt" inkscape:zoom="0.22167025" inkscape:cx="451.12053" inkscape:cy="514.27741" inkscape:window-width="1664" inkscape:window-height="981" inkscape:window-x="7" inkscape:window-y="33" inkscape:window-maximized="0" inkscape:current-layer="svg14"></sodipodi:namedview><g id="#ffffffff"></g><path fill="#a82426" opacity="1" d="m 514.57,9.21 c 42.08,-6.42 86.43,1.08 123.47,22.27 9.71,5.76 19.36,11.7 28.04,18.96 8.39,6.53 15.63,14.36 23.16,21.83 18.24,19.49 31.92,43.02 40.96,68.08 2.44,9.7 6.13,19.15 6.93,29.2 0.36,5.91 3.16,11.42 2.93,17.39 0.11,16.48 1.29,33.18 -1.97,49.45 -0.96,5.18 -0.85,10.58 -2.72,15.57 -3.09,8.46 -4.25,17.55 -8.24,25.69 -5.28,12.14 -11.22,24.12 -19.36,34.62 -7.06,9.54 -15.46,17.94 -22.74,27.29 -13.54,14.86 -26.02,30.64 -39.14,45.86 -11.93,13.75 -23.16,28.1 -35.3,41.67 -4.53,5.05 -8.62,10.6 -13.82,15 0.13,-5.74 1.64,-11.33 1.94,-17.06 0.26,-7.02 1.61,-13.98 1.22,-21.03 0.37,-15.41 -1.33,-30.83 -4.25,-45.96 -1.85,-6.98 -3.02,-14.13 -4.97,-21.07 -0.96,-3.81 -3.9,-7.46 -2.81,-11.53 8.8,-10.19 17.56,-20.45 26.49,-30.54 7.61,-9.35 16.37,-17.72 23.62,-27.38 6.06,-8.49 10.68,-17.96 14.16,-27.77 2.22,-9.8 5.01,-19.63 4.74,-29.77 0.48,-13.41 -1.35,-26.79 -4.61,-39.77 -12.46,-35.16 -41.65,-64.63 -77.68,-75.24 -18.02,-4.94 -37.27,-5.86 -55.53,-1.6 -6.51,0.68 -12.56,3.24 -18.58,5.65 -17.01,6.35 -31.13,18.52 -43.2,31.79 -12.39,14.91 -25.06,29.58 -37.82,44.17 -2.92,3.06 -4.83,7.78 -8.99,9.21 -12.36,-0.32 -24.61,-3 -37.01,-2.41 -13.04,0.55 -26.18,1.16 -38.92,4.24 -9.97,1.7 -19.51,5.06 -29.22,7.76 -4.45,1.24 -8.43,3.66 -12.81,5.06 0.33,-3.03 2.61,-5.13 4.55,-7.26 32.66,-39.6 66.45,-78.27 99.15,-117.84 12.87,-13.9 26.94,-26.82 42.95,-37.05 15.86,-9.99 33.07,-17.91 51.21,-22.76 7.8,-2.72 16.01,-3.68 24.17,-4.72 z" id="path1"></path><path fill="#a82426" opacity="1" d="m 355.93,207.53 c 13.83,-1.45 27.78,-1.06 41.63,-0.16 7.04,0.11 14.04,1.07 20.88,2.75 35.71,7.4 69.31,25 95.55,50.37 9.25,8.11 17.38,17.49 24.57,27.46 9.75,13.94 18.51,28.74 24.23,44.82 4.27,9.29 6,19.41 8.76,29.2 2.47,10.7 3.66,21.65 4.63,32.58 1.37,10.39 -0.34,20.83 -1.31,31.18 -0.35,3.81 -1.47,7.49 -2.11,11.26 -2.77,20.49 -10.65,39.91 -20.14,58.15 -9.09,17.39 -20.74,33.46 -34.74,47.23 -12.49,12.5 -27.16,22.54 -42.02,31.99 -14.76,7.36 -30.04,13.98 -46.12,17.88 -5.34,1.5 -10.65,3.24 -16.21,3.75 -9.37,0.86 -18.6,2.95 -28.03,3.24 -9.53,0.53 -19.06,-0.31 -28.57,-0.87 -16.19,-2.2 -32.16,-6.03 -47.64,-11.27 -9.85,-3.77 -19.46,-8.17 -28.75,-13.17 -15.4,-9.07 -29.71,-19.99 -42.71,-32.25 -10.95,-11.85 -22.45,-23.6 -29.93,-38.07 -5.11,-8.3 -9.06,-17.22 -12.93,-26.14 -2.4,-6.71 -5.58,-13.18 -6.98,-20.2 -1.09,-4.9 -3.3,-9.45 -4.36,-14.35 -3.01,-13.08 -3.96,-26.53 -4.35,-39.91 0.38,-7.36 0.37,-14.78 1.87,-22.02 2.2,-17.01 5.87,-33.97 12.56,-49.81 2.37,-6.91 5.97,-13.28 9.16,-19.82 4.39,-8.92 9.95,-17.18 15.82,-25.17 5.32,-7.26 11.69,-13.64 17.52,-20.48 5.79,-6.6 12.93,-11.73 19.58,-17.4 11,-8.78 22.95,-16.38 35.73,-22.29 8.55,-4.67 17.74,-7.99 27.04,-10.8 12.21,-3.6 24.69,-6.41 37.37,-7.68 m 8.05,51.12 c -10.38,1 -20.61,3.34 -30.61,6.24 -13.03,4.88 -25.93,10.55 -37.27,18.73 -9.61,6.86 -18.98,14.29 -26.51,23.46 -17.26,18.7 -29.52,42.15 -33.88,67.3 -2.75,10.65 -3.21,21.68 -2.92,32.62 -0.36,8.88 1.56,17.61 3.17,26.29 3.75,19.13 12.32,37.01 23.13,53.11 17.83,25.22 44.38,43.71 73.53,53.51 12.41,4.64 25.72,6.16 38.86,7.16 9.7,0.88 19.41,-0.38 29.07,-1.21 15.92,-1.42 30.73,-7.99 44.93,-14.91 6.76,-3.28 12.72,-7.91 19.03,-11.93 8.02,-5.11 14.58,-12.08 21.09,-18.92 23.94,-25.75 38.44,-60.78 37.32,-96.12 0.37,-12.3 -0.98,-24.69 -3.99,-36.61 -2.13,-5.22 -2.7,-10.9 -4.8,-16.13 -6.44,-16.24 -15.67,-31.46 -27.67,-44.2 -9.38,-11.08 -20.94,-20.17 -33.23,-27.8 -22.24,-13.89 -48.47,-21.51 -74.73,-20.86 -4.84,0.05 -9.69,-0.1 -14.52,0.27 z" id="path2"></path><path fill="#a82426" opacity="1" d="m 309.8,341.13 c 8.92,-1.48 18.39,1.52 25.32,7.23 5.28,4.03 8.24,10.28 10.5,16.36 1.63,7.93 1.41,16.64 -2.56,23.88 -5.35,10.47 -16.45,18.58 -28.53,18.18 -15.69,1.05 -29.75,-12.02 -32.48,-27 -0.3,-5.55 -0.96,-11.47 1.48,-16.65 2.94,-6.81 6.99,-13.76 13.68,-17.45 3.86,-2.3 8.17,-3.79 12.59,-4.55 m -13.81,14.47 c -3.84,1.79 -6.95,5.9 -6.26,10.31 0.34,7.01 9.8,11.15 15.1,6.39 3.76,-2.5 4.41,-7.6 2.85,-11.55 -2.15,-4.14 -7.17,-6.46 -11.69,-5.15 z" id="path3"></path><path fill="#a82426" opacity="1" d="m 434.57,348.09 c 13.8,-2.36 29,-0.13 40.31,8.54 1.52,1.06 2.64,2.56 3.7,4.08 -5.07,0.06 -10.04,-1.2 -15.1,-1.15 -11.47,-0.15 -23.38,1.31 -33.57,6.89 -4.53,2.56 -8.79,5.63 -12.48,9.31 8.61,0.13 17.33,-1 25.86,0.58 7.1,1.69 14.09,4.43 19.85,9 2.72,2.18 6.12,3.94 7.43,7.39 -4.58,0.52 -8.66,-1.78 -13,-2.66 -9.45,-1.58 -19.1,-2.38 -28.66,-1.49 -8.69,1.22 -17.46,2.33 -25.81,5.1 -3.11,1.18 -6.24,2.29 -9.45,3.15 -0.6,-9.47 3.34,-18.48 8.47,-26.2 7.92,-10.78 19.12,-19.79 32.45,-22.54 z" id="path4"></path><path fill="#a82426" opacity="1" d="m 148.7,375.19 c 3.39,-3.44 5.87,-7.83 10.04,-10.44 0.62,5.26 -1.17,10.33 -1.7,15.51 -1.45,21.9 -1.55,44.16 3.32,65.68 1.05,4.92 1.66,9.97 3.36,14.74 2.31,6.26 4.72,12.59 5.73,19.21 -1.68,4.29 -5.85,6.88 -8.81,10.24 -11.41,12.6 -22.4,25.57 -33.95,38.05 -10.93,11.88 -19.24,26.14 -24.43,41.42 -1.68,7.37 -3.32,14.81 -4.01,22.35 -0.22,9.52 -0.62,19.17 1.59,28.52 2.01,12.99 6.87,25.41 13.4,36.78 9.58,17.1 24.33,30.85 40.81,41.23 10.95,7.41 23.94,10.74 36.53,14.2 11.72,2.41 23.76,2.44 35.66,1.77 5.48,-0.28 10.61,-2.36 15.9,-3.59 16.26,-3.35 30.99,-12.03 43.55,-22.67 12.96,-11.79 23.46,-25.92 34.95,-39.07 4.89,-6.08 10.21,-11.81 15.03,-17.95 2.83,-3.52 5.16,-7.62 8.99,-10.16 3.41,-0.04 6.7,1.15 10.09,1.42 14.54,1.19 29.19,1.36 43.74,0.26 11.97,0.41 23.29,-4.14 34.98,-5.9 6.22,-0.79 11.92,-3.56 17.96,-5.07 4.5,-1.12 8.31,-4.2 13.02,-4.61 -0.5,1.07 -0.9,2.23 -1.66,3.16 -7.27,7.8 -13.67,16.34 -20.52,24.5 -11.54,13.47 -22.96,27.05 -34.28,40.71 -14.02,16 -27.45,32.5 -41.38,48.58 -9.39,11.23 -19.31,22.06 -30.49,31.55 -11.77,9.38 -24.65,17.34 -38.25,23.78 -13.93,7.55 -29.41,11.59 -44.79,14.96 -12.13,1.81 -24.23,4.64 -36.58,4.05 -16.21,0.46 -32.29,-2.16 -48.09,-5.5 -16.02,-4.06 -31.7,-9.67 -46.32,-17.42 C 102.37,766.02 85.12,752.17 69.66,736.84 59.65,727.28 51.75,715.81 44.3,704.21 29.12,680.98 19.37,654.13 16.8,626.46 c -2.28,-14.7 -2.26,-29.71 -0.81,-44.49 1.65,-8.21 1.06,-16.76 3.57,-24.82 2.69,-8.67 4.5,-17.62 7.96,-26.03 6.45,-15.88 15.04,-30.94 25.86,-44.25 9.26,-11.36 19.34,-22.01 28.61,-33.35 12.12,-14.55 24.82,-28.6 36.75,-43.3 9.8,-11.84 20.16,-23.19 29.96,-35.03 z" id="path5"></path><path fill="#a82426" opacity="1" d="m 437.63,453.14 c 3.03,-2.56 5.13,-6.13 8.57,-8.22 0.64,6.29 -3.25,11.61 -5.66,17.1 -8.57,17.6 -24.96,31.29 -43.9,36.38 -7.77,2.67 -16,3.49 -24.15,3.95 -15.76,-0.86 -31.84,-4.37 -45.15,-13.21 -5.52,-3.73 -11.46,-7.01 -15.99,-11.99 -5.5,-5.94 -10.99,-12.09 -14.74,-19.31 3.81,0.55 6.5,3.42 9.53,5.51 16.53,10.83 35.3,19.51 55.37,20.09 8.63,-0.15 17.42,0.68 25.86,-1.6 7.4,-1.56 14.26,-4.8 21.12,-7.88 10.97,-4.98 20.17,-12.94 29.14,-20.82 z" id="path6"></path></svg></g></g></svg>